<?xml version="1.0" encoding="utf-8"?><!-- Uploaded to: SVG Repo, www.svgrepo.com, Generator: SVG Repo Mixer Tools -->
<svg version="1.1" id="Uploaded to svgrepo.com" xmlns="http://www.w3.org/2000/svg" xmlns:xlink="http://www.w3.org/1999/xlink" 
		width="32px" height="32px" viewBox="0 0 32 32" xml:space="preserve">
	<style type="text/css">
		.linesandangles_een{fill:var(--basic-400);}
	</style>
	<path class="linesandangles_een" d="M23,6c-0.753,0-1.501,0.148-2.207,0.432C19.424,4.319,17.052,3,14.5,3
		c-3.235,0-6.043,2.034-7.079,5.033C4.936,8.321,3,10.439,3,13c0,2.757,2.243,5,5,5h3l-1,2l3,3l-1,7l7-7l-2-3l2-2h4
		c3.309,0,6-2.691,6-6S26.309,6,23,6z M16.426,22.745l-1.598,1.598l0.293-2.05l-2.688-2.688L13.236,18h2.935l-1.745,1.745
		L16.426,22.745z M23,16H8c-1.654,0-3-1.346-3-3s1.346-3,2.956-3.001l1.006,0.052L9.15,9.245C9.734,6.746,11.934,5,14.5,5
		c2.123,0,4.078,1.248,4.979,3.179l0.476,1.018l0.956-0.59C21.563,8.204,22.266,8,23,8c2.206,0,4,1.794,4,4S25.206,16,23,16z"/>
</svg>