<?xml version="1.0" encoding="iso-8859-1"?>
<!-- Uploaded to: SVG Repo, www.svgrepo.com, Generator: SVG Repo Mixer Tools -->
<svg fill="var(--basic-400)" height="32px" width="32px" version="1.1" id="Layer_1" xmlns="http://www.w3.org/2000/svg" xmlns:xlink="http://www.w3.org/1999/xlink" 
	viewBox="0 0 512.015 512.015" xml:space="preserve">
<g>
	<g>
		<g>
			<path d="M454.456,144.453c-6.661-54.556-51.131-97.076-105.505-97.076c-27.307,0-52.112,10.73-70.889,28.317
				c-24.627-27.362-59.156-43.681-96.524-43.681c-1.267,0.022-1.267,0.022-1.994,0.068c-0.432,0.029-23.215,1.167-23.215,1.167
				l2.774,22.745c0.146,1.161,0.146,1.161,0.287,2.206c0.509,3.704,0.622,4.818,0.622,5.815c0,35.343-28.657,64-64,64
				c-5.223,0-10.748-0.913-17.315-2.787l-21.976-6.27l-4.745,22.355c-2.274,10.711-3.473,20.414-3.473,30.222
				c0,29.037,8.568,56.608,23.842,79.544c-23.231,8.219-43.744,24.785-57.128,48.111c-30.003,52.19-14.329,120.134,35.464,152.164
				c9.909,6.374,23.109,3.509,29.483-6.4c6.374-9.909,3.509-23.109-6.4-29.483c-30.478-19.606-40.338-62.346-21.548-95.031
				c13.608-23.717,38.687-35.659,63.175-31.887c4.664,11.674,12.001,22.387,21.95,31.053c8.884,7.739,22.359,6.811,30.099-2.073
				c7.739-8.884,6.811-22.359-2.073-30.099c-5.82-5.07-9.784-11.728-11.795-18.95c-0.15-1.35-0.43-2.675-0.829-3.96
				c-1.379-7.752-0.589-15.658,2.245-22.759c0.01-0.025,0.021-0.051,0.031-0.076c0.246-0.612,0.509-1.218,0.785-1.818
				c0.051-0.11,0.102-0.219,0.154-0.329c0.244-0.517,0.501-1.029,0.767-1.535c0.077-0.147,0.154-0.294,0.233-0.44
				c0.255-0.471,0.523-0.936,0.798-1.397c0.095-0.159,0.186-0.319,0.283-0.476c0.287-0.466,0.588-0.925,0.895-1.379
				c0.091-0.135,0.177-0.273,0.271-0.408c0.404-0.583,0.823-1.158,1.261-1.72c0.198-0.254,0.412-0.486,0.615-0.734
				c0.38-0.463,0.756-0.933,1.152-1.372c0.299-0.332,0.615-0.637,0.923-0.955c0.32-0.331,0.634-0.673,0.963-0.989
				c0.335-0.321,0.685-0.615,1.029-0.92c0.32-0.284,0.633-0.579,0.96-0.849c0.362-0.299,0.737-0.572,1.107-0.854
				c0.325-0.247,0.644-0.505,0.976-0.74c0.385-0.273,0.781-0.521,1.175-0.776c0.33-0.214,0.656-0.438,0.991-0.64
				c0.405-0.244,0.82-0.464,1.232-0.689c0.336-0.184,0.668-0.375,1.009-0.547c0.421-0.212,0.85-0.401,1.277-0.595
				c0.343-0.155,0.684-0.318,1.031-0.461c0.434-0.179,0.875-0.337,1.314-0.497c0.349-0.127,0.696-0.26,1.047-0.375
				c0.447-0.146,0.898-0.271,1.349-0.398c0.242-0.068,0.483-0.136,0.726-0.198c-0.204,6.885,0.42,13.9,1.977,20.909
				c2.556,11.502,13.952,18.753,25.453,16.198s18.753-13.952,16.198-25.453c-1.712-7.702-1.177-15.36,1.099-22.22l0.547-1.458
				c2.197-5.855,5.595-10.927,9.848-14.889c0.018-0.016,0.035-0.032,0.053-0.049c0.485-0.45,0.983-0.884,1.49-1.304
				c0.069-0.057,0.137-0.114,0.206-0.171c0.491-0.401,0.992-0.788,1.502-1.161c0.055-0.04,0.109-0.083,0.164-0.123
				c1.111-0.803,2.267-1.536,3.461-2.199c0.177-0.098,0.358-0.189,0.536-0.284c0.402-0.214,0.808-0.422,1.219-0.62
				c0.236-0.114,0.475-0.223,0.714-0.331c0.363-0.164,0.729-0.321,1.098-0.473c0.265-0.109,0.53-0.217,0.799-0.32
				c0.357-0.136,0.718-0.261,1.08-0.385c0.277-0.095,0.552-0.194,0.833-0.282c0.409-0.128,0.823-0.24,1.237-0.352
				c0.215-0.058,0.427-0.125,0.644-0.179c0.543-0.135,1.087-0.253,1.631-0.36c0.22-0.042,0.44-0.077,0.66-0.115
				c0.254-0.044,0.507-0.087,0.761-0.125c2.876-0.414,5.813-0.425,8.806-0.037l2.18,0.282c13.283,2.608,24.697,13.452,28.14,28.935
				c2.558,11.501,13.954,18.751,25.455,16.194c11.501-2.558,18.751-13.954,16.194-25.455c-5.968-26.84-24.135-47.57-47.07-57.148
				c1.483-8.901,4.6-17.358,9.185-25.024l1.575-2.633c11.593-17.543,30.62-28.921,51.935-28.921
				c30.637,0,56.569,23.484,62.447,55.036c-32.209,10.12-55.437,41.31-55.437,77.858c0,11.782,9.551,21.333,21.333,21.333
				c11.782,0,21.333-9.551,21.333-21.333c0-21.607,16.111-38.656,35.349-38.656c19.258,0,35.371,17.047,35.371,38.656
				c0,11.782,9.551,21.333,21.333,21.333c11.782,0,21.333-9.551,21.333-21.333C512.015,185.594,487.765,153.85,454.456,144.453z
				M91.176,170.549c1.608,0.087,3.218,0.131,4.836,0.131c54.455,0,99.383-40.812,105.864-93.516
				c20.006,4.966,37.833,17.158,50.602,34.603c-4.208,9.461-7.186,19.634-8.713,30.292c-0.113,0.021-0.226,0.046-0.34,0.068
				c-0.221,0.042-0.442,0.088-0.663,0.132c-1.196,0.235-2.39,0.492-3.579,0.788c-1.274,0.317-2.533,0.671-3.779,1.051
				c-0.323,0.098-0.638,0.212-0.959,0.314c-0.881,0.281-1.76,0.566-2.627,0.878c-0.56,0.201-1.107,0.422-1.66,0.634
				c-0.602,0.233-1.206,0.461-1.801,0.708c-0.687,0.285-1.362,0.59-2.038,0.893c-0.435,0.196-0.872,0.388-1.303,0.591
				c-0.772,0.364-1.531,0.747-2.287,1.135c-0.313,0.161-0.627,0.32-0.938,0.485c-0.834,0.443-1.655,0.903-2.468,1.375
				c-0.213,0.123-0.425,0.246-0.637,0.372c-0.884,0.524-1.756,1.065-2.615,1.623c-0.122,0.079-0.244,0.159-0.366,0.239
				c-0.93,0.61-1.845,1.239-2.745,1.887c-0.035,0.025-0.07,0.051-0.106,0.077c-7.847,5.671-14.556,12.736-19.854,20.79
				c-0.295-0.022-0.589-0.034-0.884-0.053c-0.455-0.029-0.911-0.061-1.366-0.081c-0.633-0.028-1.266-0.043-1.899-0.055
				c-0.602-0.011-1.204-0.013-1.806-0.01c-0.435,0.002-0.87,0.003-1.304,0.013c-0.456,0.01-0.91,0.028-1.365,0.047
				c-0.423,0.017-0.846,0.037-1.268,0.062c-0.453,0.026-0.906,0.055-1.358,0.089c-0.432,0.033-0.863,0.073-1.293,0.113
				c-0.439,0.041-0.878,0.078-1.315,0.127c-0.62,0.069-1.238,0.15-1.855,0.235c-0.582,0.079-1.163,0.168-1.743,0.261
				c-0.451,0.072-0.903,0.144-1.353,0.224c-0.434,0.078-0.867,0.163-1.299,0.248c-0.428,0.084-0.856,0.172-1.283,0.264
				c-0.43,0.093-0.86,0.188-1.289,0.288c-0.44,0.103-0.877,0.213-1.315,0.323c-0.409,0.104-0.82,0.204-1.227,0.314
				c-0.623,0.168-1.242,0.349-1.86,0.534c-0.518,0.155-1.034,0.317-1.549,0.483c-0.471,0.152-0.943,0.303-1.412,0.464
				c-0.4,0.137-0.797,0.282-1.195,0.426c-0.433,0.157-0.864,0.316-1.294,0.481c-0.397,0.152-0.793,0.306-1.188,0.465
				c-0.443,0.178-0.884,0.364-1.325,0.551c-0.369,0.157-0.74,0.31-1.107,0.473c-0.633,0.28-1.262,0.573-1.889,0.871
				c-0.416,0.198-0.828,0.402-1.241,0.608c-0.497,0.247-0.993,0.496-1.485,0.754c-0.355,0.187-0.707,0.38-1.06,0.573
				c-0.433,0.236-0.865,0.476-1.294,0.721c-0.353,0.201-0.705,0.405-1.055,0.612c-0.442,0.262-0.88,0.53-1.318,0.802
				c-0.323,0.2-0.647,0.397-0.967,0.602c-0.622,0.398-1.238,0.807-1.85,1.224c-0.312,0.212-0.62,0.43-0.929,0.647
				c-0.517,0.363-1.033,0.73-1.542,1.107c-0.303,0.224-0.602,0.455-0.903,0.684c-0.425,0.324-0.848,0.652-1.268,0.986
				c-0.305,0.243-0.609,0.488-0.911,0.736c-0.425,0.349-0.846,0.705-1.266,1.064c-0.276,0.236-0.553,0.469-0.825,0.709
				c-0.591,0.521-1.176,1.052-1.754,1.593c-0.204,0.191-0.405,0.384-0.607,0.577c-0.53,0.506-1.055,1.019-1.573,1.542
				c-0.25,0.253-0.496,0.511-0.743,0.768c-0.403,0.418-0.804,0.84-1.199,1.269c-0.254,0.275-0.506,0.553-0.757,0.832
				c-0.399,0.445-0.793,0.897-1.184,1.352c-0.224,0.261-0.449,0.519-0.67,0.783c-0.538,0.644-1.069,1.299-1.591,1.964
				c-0.056,0.071-0.114,0.138-0.169,0.209c-0.67,0.861-1.306,1.74-1.937,2.621c-0.145,0.203-0.302,0.399-0.445,0.603
				c-0.745,1.06-1.458,2.135-2.147,3.22c-0.019,0.03-0.04,0.059-0.059,0.089c-4.275,6.758-7.465,13.994-9.598,21.46
				c-13.62-17.143-21.443-39.045-21.443-62.433C91.17,171.206,91.172,170.878,91.176,170.549z"/>
			<path d="M390.253,336.917l-21.333,21.333c-8.331,8.331-8.331,21.839,0,30.17c8.331,8.331,21.839,8.331,30.17,0l21.333-21.333
				c8.331-8.331,8.331-21.839,0-30.17C412.091,328.586,398.584,328.586,390.253,336.917z"/>
			<path d="M262.253,422.251l-21.333,21.333c-8.331,8.331-8.331,21.839,0,30.17c8.331,8.331,21.839,8.331,30.17,0l21.333-21.333
				c8.331-8.331,8.331-21.839,0-30.17S270.584,413.919,262.253,422.251z"/>
			<path d="M283.586,315.584l-21.333,21.333c-8.331,8.331-8.331,21.839,0,30.17c8.331,8.331,21.839,8.331,30.17,0l21.333-21.333
				c8.331-8.331,8.331-21.839,0-30.17C305.425,307.253,291.917,307.253,283.586,315.584z"/>
		</g>
	</g>
</g>
</svg>